<svg width="160" height="101" viewBox="0 0 160 101" fill="none" xmlns="http://www.w3.org/2000/svg">
<path d="M23.2054 34.27C20.6854 34.27 18.4204 33.805 16.4104 32.875C14.4004 31.945 12.7954 30.58 11.5954 28.78C10.4254 26.95 9.84041 24.745 9.84041 22.165C9.84041 20.365 10.1554 18.415 10.7854 16.315C12.1654 11.815 14.2504 8.575 17.0404 6.595C19.8304 4.585 22.8154 3.58 25.9954 3.58C27.7054 3.58 29.2204 3.835 30.5404 4.345C31.8604 4.855 33.0754 5.59 34.1854 6.55L35.4004 5.605C36.2104 4.975 36.8854 4.54 37.4254 4.3C37.9954 4.06 38.6254 3.94 39.3154 3.94C40.0654 3.94 40.6654 4.105 41.1154 4.435C41.5654 4.765 41.7904 5.245 41.7904 5.875C41.7904 6.205 41.7304 6.535 41.6104 6.865L39.0904 13.885C38.8204 14.695 38.4904 15.265 38.1004 15.595C37.7404 15.925 37.1854 16.09 36.4354 16.09C35.6554 16.09 35.0104 15.82 34.5004 15.28C34.0204 14.71 33.4654 13.75 32.8354 12.4C32.1154 10.99 31.5304 10.06 31.0804 9.61C30.6304 9.16 29.9704 8.935 29.1004 8.935C27.8704 8.935 26.6854 9.7 25.5454 11.23C24.4054 12.73 23.3704 14.995 22.4404 18.025C21.6604 20.575 21.2704 22.705 21.2704 24.415C21.2704 25.915 21.5554 27.04 22.1254 27.79C22.6954 28.51 23.4604 28.87 24.4204 28.87C25.8304 28.87 26.9854 28.555 27.8854 27.925C28.8154 27.295 29.7604 26.44 30.7204 25.36C31.3204 24.7 31.8004 24.22 32.1604 23.92C32.5504 23.59 32.9554 23.425 33.3754 23.425C33.9154 23.425 34.4854 23.695 35.0854 24.235C35.6854 24.775 35.9704 25.315 35.9404 25.855C35.9704 26.515 35.4304 27.535 34.3204 28.915C33.2404 30.295 31.7254 31.54 29.7754 32.65C27.8554 33.73 25.6654 34.27 23.2054 34.27ZM56.1176 10.195C60.1976 10.195 63.1976 11.02 65.1176 12.67C67.0676 14.32 68.0426 16.48 68.0426 19.15C68.0426 20.05 67.9226 21.055 67.6826 22.165C67.1126 24.625 66.0476 26.785 64.4876 28.645C62.9276 30.475 61.0076 31.9 58.7276 32.92C56.4776 33.91 54.0326 34.405 51.3926 34.405C47.2226 34.405 44.1326 33.58 42.1226 31.93C40.1426 30.25 39.1526 28.03 39.1526 25.27C39.1526 24.34 39.2726 23.305 39.5126 22.165C40.0826 19.825 41.1626 17.755 42.7526 15.955C44.3726 14.125 46.3376 12.715 48.6476 11.725C50.9876 10.705 53.4776 10.195 56.1176 10.195ZM55.9826 14.2C55.3526 14.2 54.6776 14.77 53.9576 15.91C53.2676 17.02 52.4426 19.135 51.4826 22.255C50.5226 25.375 50.0426 27.565 50.0426 28.825C50.0426 29.485 50.1476 29.935 50.3576 30.175C50.5676 30.385 50.8526 30.49 51.2126 30.49C51.8426 30.55 52.4876 30.01 53.1476 28.87C53.8376 27.73 54.6926 25.51 55.7126 22.21C56.6426 19.3 57.1076 17.185 57.1076 15.865C57.1076 15.235 57.0026 14.8 56.7926 14.56C56.6126 14.32 56.3426 14.2 55.9826 14.2ZM103.739 0.744999C106.949 0.744999 109.349 1.24 110.939 2.23C112.559 3.19 113.369 4.375 113.369 5.785C113.369 6.925 112.889 7.81 111.929 8.44C110.999 9.04 109.769 9.34 108.239 9.34C106.829 9.34 105.734 8.995 104.954 8.305C104.174 7.615 103.784 6.76 103.784 5.74C103.784 5.11 103.979 4.45 104.369 3.76C103.469 3.76 102.719 3.985 102.119 4.435C101.519 4.855 101.054 5.59 100.724 6.64C100.544 7.3 100.454 7.915 100.454 8.485C100.454 9.205 100.574 9.775 100.814 10.195C101.084 10.585 101.459 10.78 101.939 10.78H105.944C107.504 10.78 108.284 11.26 108.284 12.22C108.284 12.34 108.254 12.52 108.194 12.76C108.014 13.42 107.639 13.915 107.069 14.245C106.529 14.575 105.704 14.74 104.594 14.74H101.894L97.4389 29.32C97.3489 29.68 97.3039 29.995 97.3039 30.265C97.3039 30.655 97.3789 30.97 97.5289 31.21C97.6789 31.42 97.8889 31.63 98.1589 31.84C98.3689 32.05 98.5189 32.23 98.6089 32.38C98.6989 32.5 98.7139 32.665 98.6539 32.875C98.5039 33.265 98.2039 33.55 97.7539 33.73C97.3039 33.91 96.6139 34 95.6839 34H85.4239C84.6439 34 84.0739 33.88 83.7139 33.64C83.3539 33.37 83.2339 33.025 83.3539 32.605C83.4739 32.245 83.7889 31.93 84.2989 31.66C84.7489 31.42 85.1239 31.135 85.4239 30.805C85.7239 30.475 85.9789 29.95 86.1889 29.23L90.5989 14.74H84.7489L80.2939 29.32C80.2039 29.68 80.1589 29.995 80.1589 30.265C80.1589 30.655 80.2339 30.97 80.3839 31.21C80.5339 31.42 80.7439 31.63 81.0139 31.84C81.2239 32.05 81.3739 32.23 81.4639 32.38C81.5539 32.5 81.5689 32.665 81.5089 32.875C81.3589 33.265 81.0589 33.55 80.6089 33.73C80.1589 33.91 79.4689 34 78.5389 34H68.2789C67.4989 34 66.9289 33.88 66.5689 33.64C66.2089 33.37 66.0889 33.025 66.2089 32.605C66.3289 32.245 66.6439 31.93 67.1539 31.66C67.6039 31.42 67.9789 31.135 68.2789 30.805C68.5789 30.475 68.8339 29.95 69.0439 29.23L72.5539 17.71C72.7039 17.26 72.7789 16.795 72.7789 16.315C72.7789 15.715 72.6439 15.25 72.3739 14.92C72.1339 14.56 71.7589 14.17 71.2489 13.75C70.9189 13.48 70.6639 13.255 70.4839 13.075C70.3339 12.865 70.2589 12.625 70.2589 12.355C70.2289 11.785 70.4239 11.38 70.8439 11.14C71.2939 10.9 72.1339 10.78 73.3639 10.78H74.5789C74.3089 10 74.1739 9.22 74.1739 8.44C74.1739 7.57 74.3089 6.82 74.5789 6.19C75.2089 4.51 76.3789 3.19 78.0889 2.23C79.7989 1.24 82.0639 0.744999 84.8839 0.744999C88.1539 0.744999 91.1389 1.6 93.8389 3.31C95.9689 1.6 99.2689 0.744999 103.739 0.744999ZM91.8139 10.78C91.5139 9.97 91.3639 9.145 91.3639 8.305C91.3639 7.735 91.4389 7.15 91.5889 6.55C90.1789 5.71 88.8739 5.29 87.6739 5.29C86.0539 5.29 85.0189 5.95 84.5689 7.27C84.4489 7.63 84.3889 8.05 84.3889 8.53C84.3889 9.16 84.5239 9.7 84.7939 10.15C85.0939 10.57 85.4839 10.78 85.9639 10.78H91.8139ZM119.348 9.97C123.158 9.97 125.918 10.585 127.628 11.815C129.338 13.015 130.193 14.56 130.193 16.45C130.193 17.02 130.133 17.545 130.013 18.025C129.563 20.005 128.303 21.43 126.233 22.3C124.193 23.14 121.778 23.56 118.988 23.56C117.578 23.56 116.258 23.47 115.028 23.29C114.998 24.85 115.418 25.945 116.288 26.575C117.158 27.205 118.373 27.52 119.933 27.52C120.653 27.52 121.343 27.445 122.003 27.295C122.663 27.115 123.503 26.86 124.523 26.53C125.363 26.23 125.933 26.08 126.233 26.08C126.563 26.08 126.728 26.275 126.728 26.665C126.758 27.715 126.368 28.825 125.558 29.995C124.748 31.135 123.548 32.11 121.958 32.92C120.368 33.73 118.448 34.135 116.198 34.135C112.868 34.135 110.138 33.295 108.008 31.615C105.878 29.935 104.813 27.49 104.813 24.28C104.813 23.38 104.933 22.33 105.173 21.13C105.923 17.44 107.558 14.665 110.078 12.805C112.628 10.915 115.718 9.97 119.348 9.97ZM115.343 20.59C115.463 20.62 115.628 20.635 115.838 20.635C117.098 20.635 118.058 20.05 118.718 18.88C119.378 17.71 119.693 16.405 119.663 14.965C119.633 14.125 119.393 13.705 118.943 13.705C118.613 13.705 118.223 13.975 117.773 14.515C117.323 15.025 116.873 15.805 116.423 16.855C116.003 17.905 115.643 19.15 115.343 20.59ZM144.529 9.97C148.339 9.97 151.099 10.585 152.809 11.815C154.519 13.015 155.374 14.56 155.374 16.45C155.374 17.02 155.314 17.545 155.194 18.025C154.744 20.005 153.484 21.43 151.414 22.3C149.374 23.14 146.959 23.56 144.169 23.56C142.759 23.56 141.439 23.47 140.209 23.29C140.179 24.85 140.599 25.945 141.469 26.575C142.339 27.205 143.554 27.52 145.114 27.52C145.834 27.52 146.524 27.445 147.184 27.295C147.844 27.115 148.684 26.86 149.704 26.53C150.544 26.23 151.114 26.08 151.414 26.08C151.744 26.08 151.909 26.275 151.909 26.665C151.939 27.715 151.549 28.825 150.739 29.995C149.929 31.135 148.729 32.11 147.139 32.92C145.549 33.73 143.629 34.135 141.379 34.135C138.049 34.135 135.319 33.295 133.189 31.615C131.059 29.935 129.994 27.49 129.994 24.28C129.994 23.38 130.114 22.33 130.354 21.13C131.104 17.44 132.739 14.665 135.259 12.805C137.809 10.915 140.899 9.97 144.529 9.97ZM140.524 20.59C140.644 20.62 140.809 20.635 141.019 20.635C142.279 20.635 143.239 20.05 143.899 18.88C144.559 17.71 144.874 16.405 144.844 14.965C144.814 14.125 144.574 13.705 144.124 13.705C143.794 13.705 143.404 13.975 142.954 14.515C142.504 15.025 142.054 15.805 141.604 16.855C141.184 17.905 140.824 19.15 140.524 20.59ZM36.2064 70.03C37.4364 70.03 38.0514 70.42 38.0514 71.2C38.0514 71.41 38.0364 71.56 38.0064 71.65C37.9164 71.95 37.7814 72.19 37.6014 72.37C37.4214 72.52 37.1664 72.7 36.8364 72.91C36.3864 73.18 36.0114 73.48 35.7114 73.81C35.4114 74.14 35.1564 74.65 34.9464 75.34L29.3664 95.32C28.8564 97.12 28.2114 98.38 27.4314 99.1C26.6814 99.82 25.6314 100.18 24.2814 100.18C23.0814 100.18 22.0764 99.835 21.2664 99.145C20.4864 98.425 19.7514 97.33 19.0614 95.86L12.2664 81.55L8.48637 94.69C8.39637 95.08 8.35137 95.425 8.35137 95.725C8.35137 96.115 8.41137 96.445 8.53137 96.715C8.68137 96.955 8.87637 97.21 9.11637 97.48C9.44637 97.87 9.61137 98.2 9.61137 98.47C9.61137 98.65 9.59637 98.785 9.56637 98.875C9.44637 99.295 9.17637 99.595 8.75637 99.775C8.33637 99.925 7.70637 100 6.86637 100H1.96137C0.731367 100 0.116367 99.61 0.116367 98.83C0.116367 98.62 0.131367 98.47 0.161367 98.38C0.251367 98.08 0.386367 97.855 0.566367 97.705C0.746367 97.525 1.00137 97.33 1.33137 97.12C1.78137 96.85 2.15637 96.55 2.45637 96.22C2.75637 95.89 3.01137 95.38 3.22137 94.69L8.93637 74.485L8.21637 73C7.91637 72.4 7.76637 71.875 7.76637 71.425C7.76637 70.495 8.36637 70.03 9.56637 70.03H16.2264C17.1864 70.03 17.9064 70.255 18.3864 70.705C18.8964 71.125 19.4364 71.89 20.0064 73L26.5764 86.185L29.6814 75.34C29.7714 74.92 29.8164 74.575 29.8164 74.305C29.8164 73.915 29.7414 73.6 29.5914 73.36C29.4714 73.09 29.2914 72.82 29.0514 72.55C28.7214 72.16 28.5564 71.83 28.5564 71.56C28.5564 71.38 28.5714 71.245 28.6014 71.155C28.7214 70.735 28.9914 70.45 29.4114 70.3C29.8314 70.12 30.4614 70.03 31.3014 70.03H36.2064ZM49.9117 76.195C53.3617 76.195 56.1217 76.84 58.1917 78.13C60.2617 79.39 61.2967 81.325 61.2967 83.935C61.2967 84.925 61.1167 86.05 60.7567 87.31L58.9117 93.52C58.8817 93.64 58.8667 93.79 58.8667 93.97C58.8667 94.45 59.0617 94.69 59.4517 94.69C59.8117 94.69 60.1117 94.54 60.3517 94.24C60.6217 93.91 60.8017 93.745 60.8917 93.745C61.0417 93.745 61.1617 93.85 61.2517 94.06C61.3717 94.27 61.4317 94.51 61.4317 94.78C61.4617 95.59 61.1467 96.415 60.4867 97.255C59.8567 98.095 59.0017 98.785 57.9217 99.325C56.8417 99.865 55.6567 100.135 54.3667 100.135C52.8067 100.135 51.4717 99.85 50.3617 99.28C49.2517 98.71 48.4867 97.87 48.0667 96.76C47.1667 97.84 46.1017 98.68 44.8717 99.28C43.6417 99.85 42.3217 100.135 40.9117 100.135C39.3217 100.135 37.9867 99.835 36.9067 99.235C35.8267 98.605 35.0167 97.81 34.4767 96.85C33.9667 95.86 33.7117 94.825 33.7117 93.745C33.7117 93.265 33.7567 92.8 33.8467 92.35C34.3267 90.28 35.3617 88.72 36.9517 87.67C38.5717 86.62 40.4917 86.095 42.7117 86.095C45.2017 86.095 47.6467 86.485 50.0467 87.265L51.1717 84.295C51.5617 83.035 51.7567 82.06 51.7567 81.37C51.7267 80.65 51.4867 80.11 51.0367 79.75C50.5867 79.39 49.8967 79.21 48.9667 79.21C49.1467 79.69 49.2367 80.185 49.2367 80.695C49.2367 81.805 48.8167 82.765 47.9767 83.575C47.1367 84.385 45.9367 84.79 44.3767 84.79C42.9067 84.79 41.7517 84.475 40.9117 83.845C40.1017 83.185 39.6967 82.375 39.6967 81.415C39.6967 79.915 40.5367 78.67 42.2167 77.68C43.8967 76.69 46.4617 76.195 49.9117 76.195ZM47.3917 89.83C46.5517 89.83 45.8617 90.16 45.3217 90.82C44.8117 91.45 44.5567 92.14 44.5567 92.89C44.5567 93.37 44.6617 93.76 44.8717 94.06C45.1117 94.36 45.4417 94.51 45.8617 94.51C46.2517 94.51 46.6717 94.36 47.1217 94.06C47.6017 93.73 47.9467 93.25 48.1567 92.62L49.1017 89.965C48.5917 89.875 48.0217 89.83 47.3917 89.83ZM83.405 76.78C83.975 76.78 84.41 76.9 84.71 77.14C85.04 77.38 85.205 77.71 85.205 78.13C85.205 78.25 85.175 78.46 85.115 78.76C84.725 80.08 83.825 80.74 82.415 80.74H79.805L76.43 91.855C76.28 92.305 76.205 92.77 76.205 93.25C76.205 93.79 76.355 94.165 76.655 94.375C76.955 94.585 77.375 94.69 77.915 94.69C78.395 94.69 78.995 94.63 79.715 94.51C80.075 94.42 80.39 94.375 80.66 94.375C80.87 94.375 81.02 94.45 81.11 94.6C81.23 94.72 81.29 94.885 81.29 95.095C81.32 95.695 80.87 96.43 79.94 97.3C79.04 98.14 77.81 98.875 76.25 99.505C74.69 100.105 72.965 100.405 71.075 100.405C69.035 100.405 67.4 99.94 66.17 99.01C64.94 98.08 64.325 96.805 64.325 95.185C64.325 94.435 64.445 93.715 64.685 93.025L67.565 84.115C67.715 83.605 67.79 83.2 67.79 82.9C67.79 82.3 67.64 81.79 67.34 81.37C67.07 80.95 66.68 80.515 66.17 80.065C65.72 79.645 65.405 79.3 65.225 79.03C65.045 78.73 65 78.385 65.09 77.995C65.21 77.605 65.465 77.305 65.855 77.095C66.245 76.885 66.86 76.78 67.7 76.78H70.22L73.055 73.945C74.045 72.955 74.945 72.265 75.755 71.875C76.595 71.485 77.675 71.29 78.995 71.29C80.885 71.29 81.83 72.01 81.83 73.45C81.83 73.9 81.77 74.32 81.65 74.71L81.02 76.78H83.405ZM94.461 76.195C96.201 76.195 97.476 76.525 98.286 77.185C99.096 77.845 99.501 78.745 99.501 79.885C99.501 80.575 99.396 81.235 99.186 81.865L95.046 95.32C94.956 95.68 94.911 95.995 94.911 96.265C94.911 96.655 94.986 96.97 95.136 97.21C95.286 97.42 95.496 97.63 95.766 97.84C95.976 98.05 96.126 98.23 96.216 98.38C96.306 98.5 96.321 98.665 96.261 98.875C96.111 99.265 95.811 99.55 95.361 99.73C94.911 99.91 94.221 100 93.291 100H83.031C82.251 100 81.681 99.88 81.321 99.64C80.961 99.37 80.841 99.025 80.961 98.605C81.081 98.245 81.396 97.93 81.906 97.66C82.356 97.42 82.731 97.135 83.031 96.805C83.331 96.475 83.586 95.95 83.796 95.23L87.711 82.225C87.801 81.955 87.846 81.73 87.846 81.55C87.846 81.22 87.771 80.965 87.621 80.785C87.471 80.575 87.246 80.365 86.946 80.155C86.646 79.915 86.436 79.705 86.316 79.525C86.196 79.345 86.181 79.105 86.271 78.805C86.451 78.115 87.396 77.515 89.106 77.005C90.816 76.465 92.601 76.195 94.461 76.195ZM97.476 66.25C98.646 66.25 99.621 66.64 100.401 67.42C101.181 68.17 101.571 69.1 101.571 70.21C101.571 70.99 101.361 71.755 100.941 72.505C100.551 73.255 99.981 73.87 99.231 74.35C98.511 74.8 97.701 75.025 96.801 75.025C95.661 75.025 94.701 74.65 93.921 73.9C93.171 73.12 92.781 72.16 92.751 71.02C92.751 70.27 92.946 69.535 93.336 68.815C93.726 68.065 94.281 67.45 95.001 66.97C95.721 66.49 96.546 66.25 97.476 66.25ZM116.52 76.195C120.6 76.195 123.6 77.02 125.52 78.67C127.47 80.32 128.445 82.48 128.445 85.15C128.445 86.05 128.325 87.055 128.085 88.165C127.515 90.625 126.45 92.785 124.89 94.645C123.33 96.475 121.41 97.9 119.13 98.92C116.88 99.91 114.435 100.405 111.795 100.405C107.625 100.405 104.535 99.58 102.525 97.93C100.545 96.25 99.5555 94.03 99.5555 91.27C99.5555 90.34 99.6755 89.305 99.9155 88.165C100.485 85.825 101.565 83.755 103.155 81.955C104.775 80.125 106.74 78.715 109.05 77.725C111.39 76.705 113.88 76.195 116.52 76.195ZM116.385 80.2C115.755 80.2 115.08 80.77 114.36 81.91C113.67 83.02 112.845 85.135 111.885 88.255C110.925 91.375 110.445 93.565 110.445 94.825C110.445 95.485 110.55 95.935 110.76 96.175C110.97 96.385 111.255 96.49 111.615 96.49C112.245 96.55 112.89 96.01 113.55 94.87C114.24 93.73 115.095 91.51 116.115 88.21C117.045 85.3 117.51 83.185 117.51 81.865C117.51 81.235 117.405 80.8 117.195 80.56C117.015 80.32 116.745 80.2 116.385 80.2ZM156.492 93.79C156.432 93.91 156.402 94.09 156.402 94.33C156.402 94.54 156.447 94.705 156.537 94.825C156.657 94.945 156.807 95.005 156.987 95.005C157.347 95.005 157.647 94.855 157.887 94.555C158.157 94.225 158.337 94.06 158.427 94.06C158.577 94.06 158.697 94.165 158.787 94.375C158.877 94.555 158.922 94.78 158.922 95.05C158.952 95.92 158.667 96.775 158.067 97.615C157.467 98.425 156.582 99.1 155.412 99.64C154.272 100.15 152.892 100.405 151.272 100.405C149.292 100.405 147.717 99.955 146.547 99.055C145.377 98.125 144.777 96.895 144.747 95.365C144.747 94.255 145.017 93.01 145.557 91.63L148.032 85.15C148.182 84.76 148.257 84.445 148.257 84.205C148.257 83.815 148.122 83.515 147.852 83.305C147.612 83.065 147.312 82.945 146.952 82.945C146.292 82.945 145.662 83.26 145.062 83.89C144.462 84.49 144.027 85.24 143.757 86.14L140.967 95.32C140.847 95.65 140.787 95.965 140.787 96.265C140.787 96.625 140.862 96.925 141.012 97.165C141.162 97.375 141.372 97.6 141.642 97.84C141.852 98.02 142.002 98.185 142.092 98.335C142.182 98.485 142.197 98.665 142.137 98.875C142.017 99.265 141.732 99.55 141.282 99.73C140.832 99.91 140.127 100 139.167 100H128.907C128.127 100 127.572 99.88 127.242 99.64C126.882 99.37 126.747 99.025 126.837 98.605C126.957 98.245 127.272 97.93 127.782 97.66C128.232 97.42 128.607 97.135 128.907 96.805C129.207 96.475 129.462 95.95 129.672 95.23L133.677 82.225C133.737 82.075 133.767 81.865 133.767 81.595C133.767 81.265 133.692 81.01 133.542 80.83C133.422 80.65 133.212 80.425 132.912 80.155C132.612 79.915 132.402 79.705 132.282 79.525C132.162 79.345 132.147 79.105 132.237 78.805C132.417 78.115 133.362 77.515 135.072 77.005C136.782 76.465 138.567 76.195 140.427 76.195C141.927 76.195 143.112 76.615 143.982 77.455C144.852 78.265 145.242 79.405 145.152 80.875C146.382 79.105 147.687 77.89 149.067 77.23C150.447 76.54 151.947 76.195 153.567 76.195C155.397 76.195 156.867 76.75 157.977 77.86C159.117 78.97 159.687 80.41 159.687 82.18C159.687 83.11 159.537 84.025 159.237 84.925L156.492 93.79Z" fill="#FB3544"/>
</svg>
